<?xml version="1.0" encoding="utf-8" ?><svg xmlns="http://www.w3.org/2000/svg" xmlns:xlink="http://www.w3.org/1999/xlink" width="1024" height="1024" viewBox="0 0 1024 1024"><path fill="#3A3D3E" d="M756.035 654.238C751.015 647.677 746.928 640.508 742.241 633.774C737.277 626.64 731.029 619.004 725.12 612.612C680.021 563.827 607.032 535.643 542.358 527.041C476.705 518.326 409.922 528.112 349.529 555.296C333.819 562.53 312.81 577.655 297.172 580.405C285.492 582.459 268.514 578.477 260.88 568.86C258.624 566.018 257.618 562.901 258.072 559.271C260.058 543.407 316.763 482.809 329.173 470.785C341.677 458.67 354.845 446.951 368.858 436.598C379.809 428.507 395.353 420.656 404.518 411.563C410.981 405.15 415.051 395.728 419.482 387.829C423.598 380.524 427.813 373.277 432.126 366.087C443.123 348.057 454.8 330.45 467.131 313.305C559.263 185.359 685.366 90.175 849.997 99.0924C838.729 130.541 822.948 164.635 804.647 192.521C741.493 288.752 639.902 351.584 537.657 399.504C532.053 402.131 525.977 404.969 520.293 407.305L519.384 405.114C539.997 393.167 560.044 380.27 579.461 366.463C646.076 318.542 756.983 220.869 789.334 145.504C761.712 168.87 734.371 192.567 707.316 216.589L581.937 326.254L510.199 388.58C496.693 400.42 481.191 413.291 469.386 426.739C460.583 436.767 456.935 448.416 455.739 461.63C455.148 468.725 455.061 475.852 455.479 482.96C552.148 483.946 646.082 512.992 714.656 583.474C731.885 601.182 756.169 628.66 756.035 654.238Z"/><path fill="#3A3D3E" d="M483.758 539.215C488.415 538.757 497.094 538.919 501.808 539.005C530.866 539.528 559.717 544.012 587.563 552.335C642.436 568.779 696.127 601.788 723.721 653.595C737.183 678.978 739.919 708.695 731.318 736.11C710.528 803.354 622.223 847.426 555.779 826.445C559.771 825.966 563.787 824.76 567.556 823.378C611.705 807.199 651.093 766.559 647.934 716.816C646.926 700.943 643.268 687.791 633.835 674.769C563.674 582.64 376.107 612.996 279.55 638.21C260.292 643.303 241.147 648.812 222.128 654.736C212.932 657.623 203.954 660.722 194.698 663.694C190.728 665.254 185.905 662.828 185.19 658.56C184.72 654.547 191.425 651.061 194.511 650.158C210.982 645.338 226.881 640.888 242.73 634.122C262.42 625.716 282.489 616.9 300.991 606.1C331.296 588.41 360.282 567.976 393.649 556.29C424.604 545.229 450.886 541.119 483.758 539.215Z"/><path fill="#3A3D3E" d="M479.35 118.974L479.839 119.728C479.286 124.01 475.819 134.984 474.233 139.631C467.054 160.674 459.556 181.927 451.953 202.817L412.883 308.211L387.948 373.963C383.637 385.158 379.062 397.926 373.901 408.778C370.566 415.791 362.723 428.704 355.248 432.131C353.74 432.823 353.532 432.377 352.183 431.741C349.297 420.054 349.555 402.225 349.693 390.132C350.735 298.77 369.949 195.71 448.051 137.998C457.867 130.745 468.643 124.856 479.35 118.974Z"/><path fill="#3A3D3E" d="M341.826 769.223C359.24 766.563 375.503 778.551 378.114 795.972C380.726 813.393 368.692 829.622 351.264 832.184C333.905 834.736 317.754 822.761 315.153 805.409C312.552 788.058 324.482 771.873 341.826 769.223ZM350.56 818.211C360.192 815.98 366.198 806.37 363.981 796.735C361.765 787.1 352.164 781.08 342.525 783.282C332.866 785.488 326.831 795.114 329.052 804.769C331.273 814.425 340.907 820.446 350.56 818.211Z"/><path fill="#3A3D3E" d="M418.901 769.241C436.307 767.419 451.909 780.017 453.795 797.416C455.681 814.815 443.142 830.464 425.75 832.415C408.266 834.376 392.517 821.756 390.62 804.265C388.724 786.774 401.403 771.072 418.901 769.241ZM425.432 818.259C435.06 816.468 441.431 807.235 439.69 797.599C437.949 787.962 428.75 781.542 419.104 783.233C409.387 784.936 402.91 794.218 404.664 803.926C406.418 813.634 415.733 820.063 425.432 818.259Z"/><path fill="#3A3D3E" d="M769.861 536.256C786.891 533.377 803.006 544.923 805.756 561.975C808.505 579.026 796.837 595.053 779.765 597.673C762.875 600.265 747.057 588.748 744.337 571.879C741.617 555.009 753.013 539.104 769.861 536.256Z"/><path fill="#3A3D3E" d="M310.696 681.483C315.502 681.717 320.927 681.685 325.783 681.768C326.846 690.055 334.107 713.614 336.813 723.284C340.508 709.191 344.721 695.467 348.91 681.516L361.692 681.55C365.872 695.45 369.732 710.073 373.64 724.096C377.549 710.21 381.161 695.513 384.903 681.506C389.222 681.839 395.121 681.714 399.56 681.748C398.724 685.071 397.536 688.792 396.553 692.115C391.264 709.023 386.098 725.969 381.058 742.952L365.944 742.999C362.387 732.265 357.86 718.023 355.46 707.123C351.759 716.511 347.496 732.591 344.074 742.956L328.677 742.981C322.644 723.4 315.314 701.208 310.696 681.483Z"/><path fill="#3A3D3E" d="M258.17 770.668C266.86 770.069 286.591 768.884 293.708 774.062C303.756 781.372 301.629 790.776 294.782 799.6C304.116 807.3 304.633 812.97 299.434 823.293C290.506 834.187 270.677 832.011 258.124 831.494C257.916 811.219 257.931 790.943 258.17 770.668ZM272.197 818.449C276.582 818.498 282.846 818.743 287.005 817.968C293.759 805.839 282.273 806.287 273.671 806.707L272.761 807.156C272.214 809.846 272.259 815.463 272.197 818.449ZM272.404 795.064C277.116 795.052 281.53 795.357 285.96 793.675C290.326 782.011 280.901 783.12 272.442 783.157L272.404 795.064Z"/><path fill="#3A3D3E" d="M448.093 681.23C459.446 680.837 473.321 679.629 482.645 687.54C491.216 694.812 490.746 707.984 483.098 715.815C477.509 721.538 471.877 722.338 464.309 722.533L457.542 722.452L457.491 743.011C452.862 742.918 448.165 742.924 443.529 742.889C444.374 727.039 443.443 711.362 443.431 695.518C443.428 691.075 443.275 686.783 444.112 682.395C445.531 681.097 445.692 681.503 448.093 681.23ZM457.419 710.438C462.916 710.504 467.891 711.078 472.594 707.962C479.726 695.172 467.175 693.942 457.529 694.107L457.419 710.438Z"/><path fill="#3A3D3E" d="M498.916 770.467C504.464 770.586 509.764 770.473 515.304 770.354C508.821 780.014 502.035 789.468 494.956 798.701C500.186 806.145 505.294 813.675 510.278 821.286C512.655 824.567 514.777 828.072 516.927 831.511L501.591 831.533C495.688 824.685 486.921 810.604 482.092 803.025C481.914 812.437 482.034 822.134 482.038 831.568L468.487 831.534C468.232 811.178 468.104 790.821 468.102 770.464C472.65 770.581 477.475 770.511 482.047 770.524C482.02 778.76 482.06 786.996 482.165 795.232C487.036 787.087 493.277 778.166 498.916 770.467Z"/><path fill="#3A3D3E" d="M502.015 681.564L539.023 681.442L539.114 694.125C532.151 693.925 523.585 694.402 516.507 694.626L516.459 705.536C523.402 705.316 531.028 705.5 538.027 705.541L538.047 718.157C533.327 718.049 521.407 718.225 516.964 718.78C516.239 719.949 516.452 721.769 516.442 723.25L516.401 730.026L540.878 729.939C540.479 734.026 540.566 738.933 540.533 743.098C527.824 742.925 514.846 743.029 502.114 742.996C502.046 740.453 502.03 737.838 501.89 735.303C500.907 717.364 501.926 699.513 502.015 681.564Z"/><path fill="#3A3D3E" d="M274.982 680.648C286.023 679.065 293.215 684.737 299.806 692.678C296.248 694.65 292.001 697.44 288.481 699.616C283.944 695.668 278.824 692.457 272.296 695.049C270.955 695.581 270.771 696.375 270.364 697.6C272.213 708.738 303.186 706.442 301.799 724.13C300.496 740.759 290.875 744.23 275.88 743.657C264.186 742.793 259.777 739.295 254.111 729.319C257.012 727.133 261.666 724.291 264.811 722.233C269.226 727.067 272.735 731.369 279.806 730.816C283.118 730.557 285.775 730.433 288.169 727.927C289.709 722.332 280.81 718.642 276.189 717.418C258.022 712.604 247.442 695.9 266.488 683.101C268.71 681.608 272.1 681.145 274.982 680.648Z"/><path fill="#3A3D3E" d="M413.317 681.585C417.893 681.766 422.93 681.691 427.543 681.717C427.306 702.178 427.318 722.642 427.579 743.103L413.512 743C413.199 740.391 413.06 737.776 412.997 735.15C412.57 717.296 413.177 699.438 413.317 681.585Z"/><path fill="#3A3D3E" d="M554.887 705.063C565.5 705.049 575.817 705.278 586.492 705.105L586.365 718.435C575.892 718.345 565.418 718.389 554.946 718.567L554.887 705.063Z"/><path fill="#161617" d="M508.532 411.796L519.384 405.114L520.293 407.305C517.864 408.011 511.337 410.776 508.532 411.796Z"/></svg>